<svg xmlns="http://www.w3.org/2000/svg" width="182.9553680419922" height="102.71428680419922" style="width:182.9553680419922px;height:102.71428680419922px;font-family:Asana-Math, Asana;background:transparent;"><g><g><g><g><g><g style="transform:matrix(1,0,0,1,2,32.330352783203125);"><path d="" stroke="rgb(0, 0, 0)" stroke-width="8" fill="rgb(0, 0, 0)" style="transform:matrix(0.017,0,0,-0.017,0,0);"></path></g><g><g><g><g><g><g><g style="transform:matrix(1,0,0,1,27.66961669921875,23.28570556640625);"><path d="M418 -3L418 27L366 30C311 33 301 44 301 96L301 700L60 598L67 548L217 614L217 96C217 44 206 33 152 30L96 27L96 -3C250 0 250 0 261 0C292 0 402 -3 418 -3ZM961 224C961 345 854 366 807 374C887 436 917 482 917 541C917 630 843 689 732 689C664 689 619 670 571 622L542 498L573 498L591 554C602 588 665 622 717 622C782 622 835 569 835 506C835 431 776 368 705 368C697 368 686 369 673 370L658 371L646 318L653 312C691 329 710 334 737 334C820 334 868 281 868 190C868 88 807 21 714 21C668 21 627 36 597 64C573 86 560 109 541 163L514 153C535 92 543 56 549 6C602 -12 646 -20 683 -20C806 -20 961 87 961 224Z" stroke="rgb(0, 0, 0)" stroke-width="8" fill="rgb(0, 0, 0)" style="transform:matrix(0.017,0,0,-0.017,0,0);"></path></g></g></g><g><g><g style="transform:matrix(1,0,0,1,32.241058349609375,44.428558349609375);"><path d="M459 253C459 366 378 446 264 446C216 446 180 443 127 396L127 605L432 604L432 689L75 690L75 322L95 316C142 363 169 377 218 377C314 377 374 309 374 201C374 90 310 25 201 25C147 25 97 43 83 69L37 151L13 137C36 80 48 48 62 4C90 -11 130 -20 173 -20C301 -20 459 89 459 253Z" stroke="rgb(0, 0, 0)" stroke-width="8" fill="rgb(0, 0, 0)" style="transform:matrix(0.017,0,0,-0.017,0,0);"></path></g></g></g><svg x="16.892852783203125" style="overflow:visible;" y="5.714263916015625" height="42.85714340209961" width="8.5"><path d=" M 6.61 1.70 q 0.00 -0.12 -0.10 -0.12 q -0.03 0.00 -0.10 0.03 q -1.26 0.80 -2.19 1.88 t -1.72 2.71 t -1.19 4.02 t -0.41 5.48 v 0.90 h 1.68 v -0.90 q 0.00 -1.73 0.05 -3.01 t 0.28 -2.96 t 0.62 -2.94 t 1.14 -2.52 t 1.79 -2.15 q 0.15 -0.14 0.15 -0.43 z   M 0.90 16.61 v 9.64 h 1.68 v -9.64 z" style="fill:rgb(0, 0, 0);stroke-width:1px;stroke:none;"></path><path d=" M 6.61 41.16 q 0.00 0.12 -0.10 0.12 q -0.03 0.00 -0.10 -0.03 q -1.26 -0.80 -2.19 -1.88 t -1.72 -2.71 t -1.19 -4.02 t -0.41 -5.48 v -0.90 h 1.68 v 0.90 q 0.00 1.73 0.05 3.01 t 0.28 2.96 t 0.62 2.94 t 1.14 2.52 t 1.79 2.15 q 0.15 0.14 0.15 0.43 z" style="fill:rgb(0, 0, 0);stroke-width:1px;stroke:none;"></path></svg><svg x="47.178558349609375" style="overflow:visible;" y="5.714263916015625" height="42.85714340209961" width="8.5"><path d=" M 1.19 1.70 q 0.00 -0.12 0.10 -0.12 q 0.03 0.00 0.10 0.03 q 1.26 0.80 2.19 1.88 t 1.72 2.71 t 1.19 4.02 t 0.41 5.48 v 0.90 h -1.68 v -0.90 q 0.00 -1.73 -0.05 -3.01 t -0.28 -2.96 t -0.62 -2.94 t -1.14 -2.52 t -1.79 -2.15 q -0.15 -0.14 -0.15 -0.43 z  M 6.90 16.61 v 9.64 h -1.68 v -9.64 z" style="fill:rgb(0, 0, 0);stroke-width:1px;stroke:none;"></path><path d=" M 1.19 41.16 q 0.00 0.12 0.10 0.12 q 0.03 0.00 0.10 -0.03 q 1.26 -0.80 2.19 -1.88 t 1.72 -2.71 t 1.19 -4.02 t 0.41 -5.48 v -0.90 h -1.68 v 0.90 q 0.00 1.73 -0.05 3.01 t -0.28 2.96 t -0.62 2.94 t -1.14 2.52 t -1.79 2.15 q -0.15 0.14 -0.15 0.43 z" style="fill:rgb(0, 0, 0);stroke-width:1px;stroke:none;"></path></svg></g><g style="transform:matrix(1,0,0,1,58.4375,32.330352783203125);"><path d="M555 243L555 299L51 299L51 243Z" stroke="rgb(0, 0, 0)" stroke-width="8" fill="rgb(0, 0, 0)" style="transform:matrix(0.017,0,0,-0.017,0,0);"></path></g><g style="transform:matrix(1,0,0,1,71.580322265625,32.330352783203125);"><path d="M418 -3L418 27L366 30C311 33 301 44 301 96L301 700L60 598L67 548L217 614L217 96C217 44 206 33 152 30L96 27L96 -3C250 0 250 0 261 0C292 0 402 -3 418 -3ZM762 689C607 689 528 566 528 324C528 207 549 106 584 57C619 8 675 -20 737 -20C888 -20 964 110 964 366C964 585 899 689 762 689ZM744 654C841 654 880 556 880 316C880 103 842 15 750 15C653 15 612 116 612 360C612 571 649 654 744 654Z" stroke="rgb(0, 0, 0)" stroke-width="8" fill="rgb(0, 0, 0)" style="transform:matrix(0.017,0,0,-0.017,0,0);"></path></g></g></g><svg x="6.23211669921875" style="overflow:visible;" y="5.142852783203125" height="44.000003814697266" width="7.642857551574707"><path d=" M 5.98 1.70 l -0.10 -0.10 q -1.09 0.03 -2.16 0.03 q -1.02 0.00 -2.14 -0.03 l -0.15 0.22 q 0.15 0.58 0.15 3.15 v 0.85 h 1.43 v -0.85 q 0.00 -1.31 0.07 -2.14 q 0.05 -0.60 1.19 -0.60 h 1.65 l 0.07 -0.09 v -0.44 z  M 1.58 5.63 v 32.75 h 1.43 v -32.75 z " style="fill:rgb(0, 0, 0);stroke-width:1px;stroke:none;"></path><path d=" M 5.98 42.30 l -0.10 0.10 q -1.09 -0.03 -2.16 -0.03 q -1.02 0.00 -2.14 0.03 l -0.15 -0.22 q 0.15 -0.58 0.15 -3.15 v -0.85 h 1.43 v 0.85 q 0.00 1.31 0.07 2.14 q 0.05 0.60 1.19 0.60 h 1.65 l 0.07 0.09 v 0.44 z" style="fill:rgb(0, 0, 0);stroke-width:1px;stroke:none;"></path></svg><svg x="91.66070556640625" style="overflow:visible;" y="5.142852783203125" height="44.000003814697266" width="7.642857551574707"><path d=" M 1.57 1.70 l 0.10 -0.10 q 1.09 0.03 2.16 0.03 q 1.02 0.00 2.14 -0.03 l 0.15 0.22 q -0.15 0.58 -0.15 3.15 v 0.85 h -1.43 v -0.85 q 0.00 -1.31 -0.07 -2.14 q -0.05 -0.60 -1.19 -0.60 h -1.65 l -0.07 -0.09 v -0.44 z  M 5.97 5.63 v 32.75 h -1.43 v -32.75 z" style="fill:rgb(0, 0, 0);stroke-width:1px;stroke:none;"></path><path d=" M 1.57 42.30 l 0.10 0.10 q 1.09 -0.03 2.16 -0.03 q 1.02 0.00 2.14 0.03 l 0.15 -0.22 q -0.15 -0.58 -0.15 -3.15 v -0.85 h -1.43 v 0.85 q 0.00 1.31 -0.07 2.14 q -0.05 0.60 -1.19 0.60 h -1.65 l -0.07 0.09 v 0.44 z" style="fill:rgb(0, 0, 0);stroke-width:1px;stroke:none;"></path></svg></g><g><g><g><g><g><g><g style="transform:matrix(1,0,0,1,120.58929443359375,26.339263916015625);"><path d="M280 181L280 106C280 46 269 32 220 30L158 27L158 -3C291 0 291 0 315 0C339 0 339 0 472 -3L472 27L424 30C375 33 364 46 364 106L364 181C423 181 444 180 472 177L472 248L364 245L365 697L285 667L2 204L2 181ZM280 245L65 245L280 597Z" stroke="rgb(0, 0, 0)" stroke-width="8" fill="rgb(0, 0, 0)" style="transform:matrix(0.017,0,0,-0.017,0,0);"></path></g></g></g><g><g><g style="transform:matrix(1,0,0,1,120.58929443359375,47.482147216796875);"><path d="M418 -3L418 27L366 30C311 33 301 44 301 96L301 700L60 598L67 548L217 614L217 96C217 44 206 33 152 30L96 27L96 -3C250 0 250 0 261 0C292 0 402 -3 418 -3Z" stroke="rgb(0, 0, 0)" stroke-width="8" fill="rgb(0, 0, 0)" style="transform:matrix(0.017,0,0,-0.017,0,0);"></path></g></g></g><svg x="109.8125" style="overflow:visible;" y="8.767852783203125" height="42.85714340209961" width="8.5"><path d=" M 6.61 1.70 q 0.00 -0.12 -0.10 -0.12 q -0.03 0.00 -0.10 0.03 q -1.26 0.80 -2.19 1.88 t -1.72 2.71 t -1.19 4.02 t -0.41 5.48 v 0.90 h 1.68 v -0.90 q 0.00 -1.73 0.05 -3.01 t 0.28 -2.96 t 0.62 -2.94 t 1.14 -2.52 t 1.79 -2.15 q 0.15 -0.14 0.15 -0.43 z   M 0.90 16.61 v 9.64 h 1.68 v -9.64 z" style="fill:rgb(0, 0, 0);stroke-width:1px;stroke:none;"></path><path d=" M 6.61 41.16 q 0.00 0.12 -0.10 0.12 q -0.03 0.00 -0.10 -0.03 q -1.26 -0.80 -2.19 -1.88 t -1.72 -2.71 t -1.19 -4.02 t -0.41 -5.48 v -0.90 h 1.68 v 0.90 q 0.00 1.73 0.05 3.01 t 0.28 2.96 t 0.62 2.94 t 1.14 2.52 t 1.79 2.15 q 0.15 0.14 0.15 0.43 z" style="fill:rgb(0, 0, 0);stroke-width:1px;stroke:none;"></path></svg><svg x="131.52679443359375" style="overflow:visible;" y="8.767852783203125" height="42.85714340209961" width="8.5"><path d=" M 1.19 1.70 q 0.00 -0.12 0.10 -0.12 q 0.03 0.00 0.10 0.03 q 1.26 0.80 2.19 1.88 t 1.72 2.71 t 1.19 4.02 t 0.41 5.48 v 0.90 h -1.68 v -0.90 q 0.00 -1.73 -0.05 -3.01 t -0.28 -2.96 t -0.62 -2.94 t -1.14 -2.52 t -1.79 -2.15 q -0.15 -0.14 -0.15 -0.43 z  M 6.90 16.61 v 9.64 h -1.68 v -9.64 z" style="fill:rgb(0, 0, 0);stroke-width:1px;stroke:none;"></path><path d=" M 1.19 41.16 q 0.00 0.12 0.10 0.12 q 0.03 0.00 0.10 -0.03 q 1.26 -0.80 2.19 -1.88 t 1.72 -2.71 t 1.19 -4.02 t 0.41 -5.48 v -0.90 h -1.68 v 0.90 q 0.00 1.73 -0.05 3.01 t -0.28 2.96 t -0.62 2.94 t -1.14 2.52 t -1.79 2.15 q -0.15 0.14 -0.15 0.43 z" style="fill:rgb(0, 0, 0);stroke-width:1px;stroke:none;"></path></svg></g><g><g><g><g style="transform:matrix(1,0,0,1,140.02679443359375,14.4714111328125);"><path d="M459 253C459 366 378 446 264 446C216 446 180 443 127 396L127 605L432 604L432 689L75 690L75 322L95 316C142 363 169 377 218 377C314 377 374 309 374 201C374 90 310 25 201 25C147 25 97 43 83 69L37 151L13 137C36 80 48 48 62 4C90 -11 130 -20 173 -20C301 -20 459 89 459 253Z" stroke="rgb(0, 0, 0)" stroke-width="8" fill="rgb(0, 0, 0)" style="transform:matrix(0.0119,0,0,-0.0119,0,0);"></path></g></g></g></g><g style="transform:matrix(1,0,0,1,148.65179443359375,35.3839111328125);"><path d="M555 243L555 299L51 299L51 243Z" stroke="rgb(0, 0, 0)" stroke-width="8" fill="rgb(0, 0, 0)" style="transform:matrix(0.017,0,0,-0.017,0,0);"></path></g><g style="transform:matrix(1,0,0,1,161.79461669921875,35.3839111328125);"><path d="M280 181L280 106C280 46 269 32 220 30L158 27L158 -3C291 0 291 0 315 0C339 0 339 0 472 -3L472 27L424 30C375 33 364 46 364 106L364 181C423 181 444 180 472 177L472 248L364 245L365 697L285 667L2 204L2 181ZM280 245L65 245L280 597Z" stroke="rgb(0, 0, 0)" stroke-width="8" fill="rgb(0, 0, 0)" style="transform:matrix(0.017,0,0,-0.017,0,0);"></path></g></g></g><svg x="99.3035888671875" style="overflow:visible;" y="2" height="50.28571701049805" width="7.642857551574707"><path d=" M 5.98 1.70 l -0.10 -0.10 q -1.09 0.03 -2.16 0.03 q -1.02 0.00 -2.14 -0.03 l -0.15 0.22 q 0.15 0.58 0.15 3.15 v 0.85 h 1.43 v -0.85 q 0.00 -1.31 0.07 -2.14 q 0.05 -0.60 1.19 -0.60 h 1.65 l 0.07 -0.09 v -0.44 z  M 1.58 5.63 v 39.03 h 1.43 v -39.03 z " style="fill:rgb(0, 0, 0);stroke-width:1px;stroke:none;"></path><path d=" M 5.98 48.59 l -0.10 0.10 q -1.09 -0.03 -2.16 -0.03 q -1.02 0.00 -2.14 0.03 l -0.15 -0.22 q 0.15 -0.58 0.15 -3.15 v -0.85 h 1.43 v 0.85 q 0.00 1.31 0.07 2.14 q 0.05 0.60 1.19 0.60 h 1.65 l 0.07 0.09 v 0.44 z" style="fill:rgb(0, 0, 0);stroke-width:1px;stroke:none;"></path></svg><svg x="173.3035888671875" style="overflow:visible;" y="2" height="50.28571701049805" width="7.642857551574707"><path d=" M 1.57 1.70 l 0.10 -0.10 q 1.09 0.03 2.16 0.03 q 1.02 0.00 2.14 -0.03 l 0.15 0.22 q -0.15 0.58 -0.15 3.15 v 0.85 h -1.43 v -0.85 q 0.00 -1.31 -0.07 -2.14 q -0.05 -0.60 -1.19 -0.60 h -1.65 l -0.07 -0.09 v -0.44 z  M 5.97 5.63 v 39.03 h -1.43 v -39.03 z" style="fill:rgb(0, 0, 0);stroke-width:1px;stroke:none;"></path><path d=" M 1.57 48.59 l 0.10 0.10 q 1.09 -0.03 2.16 -0.03 q 1.02 0.00 2.14 0.03 l 0.15 -0.22 q -0.15 -0.58 -0.15 -3.15 v -0.85 h -1.43 v 0.85 q 0.00 1.31 -0.07 2.14 q -0.05 0.60 -1.19 0.60 h -1.65 l -0.07 0.09 v 0.44 z" style="fill:rgb(0, 0, 0);stroke-width:1px;stroke:none;"></path></svg></g></g></g><g><g><g><g><g><g style="transform:matrix(1,0,0,1,82.85711669921875,75.42855834960938);"><path d="M459 253C459 366 378 446 264 446C216 446 180 443 127 396L127 605L432 604L432 689L75 690L75 322L95 316C142 363 169 377 218 377C314 377 374 309 374 201C374 90 310 25 201 25C147 25 97 43 83 69L37 151L13 137C36 80 48 48 62 4C90 -11 130 -20 173 -20C301 -20 459 89 459 253ZM515 23L515 -3C702 -3 702 0 738 0C774 0 774 -3 967 -3L967 82C852 77 806 81 621 77L803 270C900 373 930 428 930 503C930 618 852 689 725 689C653 689 604 669 555 619L538 483L567 483L580 529C596 587 632 612 699 612C785 612 840 558 840 473C840 398 798 324 685 204Z" stroke="rgb(0, 0, 0)" stroke-width="8" fill="rgb(0, 0, 0)" style="transform:matrix(0.017,0,0,-0.017,0,0);"></path></g></g></g><g><g><g style="transform:matrix(1,0,0,1,87.4285888671875,96.5714111328125);"><path d="M459 253C459 366 378 446 264 446C216 446 180 443 127 396L127 605L432 604L432 689L75 690L75 322L95 316C142 363 169 377 218 377C314 377 374 309 374 201C374 90 310 25 201 25C147 25 97 43 83 69L37 151L13 137C36 80 48 48 62 4C90 -11 130 -20 173 -20C301 -20 459 89 459 253Z" stroke="rgb(0, 0, 0)" stroke-width="8" fill="rgb(0, 0, 0)" style="transform:matrix(0.017,0,0,-0.017,0,0);"></path></g></g></g><svg x="72.080322265625" style="overflow:visible;" y="57.857147216796875" height="42.85714340209961" width="8.5"><path d=" M 6.61 1.70 q 0.00 -0.12 -0.10 -0.12 q -0.03 0.00 -0.10 0.03 q -1.26 0.80 -2.19 1.88 t -1.72 2.71 t -1.19 4.02 t -0.41 5.48 v 0.90 h 1.68 v -0.90 q 0.00 -1.73 0.05 -3.01 t 0.28 -2.96 t 0.62 -2.94 t 1.14 -2.52 t 1.79 -2.15 q 0.15 -0.14 0.15 -0.43 z   M 0.90 16.61 v 9.64 h 1.68 v -9.64 z" style="fill:rgb(0, 0, 0);stroke-width:1px;stroke:none;"></path><path d=" M 6.61 41.16 q 0.00 0.12 -0.10 0.12 q -0.03 0.00 -0.10 -0.03 q -1.26 -0.80 -2.19 -1.88 t -1.72 -2.71 t -1.19 -4.02 t -0.41 -5.48 v -0.90 h 1.68 v 0.90 q 0.00 1.73 0.05 3.01 t 0.28 2.96 t 0.62 2.94 t 1.14 2.52 t 1.79 2.15 q 0.15 0.14 0.15 0.43 z" style="fill:rgb(0, 0, 0);stroke-width:1px;stroke:none;"></path></svg><svg x="102.3660888671875" style="overflow:visible;" y="57.857147216796875" height="42.85714340209961" width="8.5"><path d=" M 1.19 1.70 q 0.00 -0.12 0.10 -0.12 q 0.03 0.00 0.10 0.03 q 1.26 0.80 2.19 1.88 t 1.72 2.71 t 1.19 4.02 t 0.41 5.48 v 0.90 h -1.68 v -0.90 q 0.00 -1.73 -0.05 -3.01 t -0.28 -2.96 t -0.62 -2.94 t -1.14 -2.52 t -1.79 -2.15 q -0.15 -0.14 -0.15 -0.43 z  M 6.90 16.61 v 9.64 h -1.68 v -9.64 z" style="fill:rgb(0, 0, 0);stroke-width:1px;stroke:none;"></path><path d=" M 1.19 41.16 q 0.00 0.12 0.10 0.12 q 0.03 0.00 0.10 -0.03 q 1.26 -0.80 2.19 -1.88 t 1.72 -2.71 t 1.19 -4.02 t 0.41 -5.48 v -0.90 h -1.68 v 0.90 q 0.00 1.73 -0.05 3.01 t -0.28 2.96 t -0.62 2.94 t -1.14 2.52 t -1.79 2.15 q -0.15 0.14 -0.15 0.43 z" style="fill:rgb(0, 0, 0);stroke-width:1px;stroke:none;"></path></svg></g></g></g><line style="fill:none;stroke-width:1px;stroke:rgb(0, 0, 0);" x1="2" y1="57.178558349609375" x2="180.9553680419922" y2="57.178558349609375"></line></g></g></g></svg>