<?xml version="1.0" encoding="UTF-8"?>
<svg xmlns="http://www.w3.org/2000/svg" xmlns:xlink="http://www.w3.org/1999/xlink" width="299" height="204" viewBox="0 0 299 204" version="1.1">
<g id="surface1">
<path style=" stroke:none;fill-rule:nonzero;fill:rgb(0%,45.882353%,56.078431%);fill-opacity:1;" d="M 71.910156 186.050781 L 60.367188 186.050781 C 59.960938 166.46875 58.835938 148.050781 57 130.800781 L 56.898438 130.800781 L 39.324219 186.050781 L 30.539062 186.050781 L 13.074219 130.800781 L 12.972656 130.800781 C 11.675781 147.367188 10.859375 165.785156 10.519531 186.050781 L -0.00390625 186.050781 C 0.675781 161.402344 2.378906 138.296875 5.101562 116.726562 L 19.40625 116.726562 L 36.054688 167.664062 L 36.160156 167.664062 L 52.910156 116.726562 L 66.597656 116.726562 C 69.59375 141.988281 71.363281 165.101562 71.90625 186.050781 "/>
<path style=" stroke:none;fill-rule:nonzero;fill:rgb(0%,45.882353%,56.078431%);fill-opacity:1;" d="M 121.96875 134.90625 C 117.269531 160.542969 111.070312 179.171875 103.375 190.792969 C 97.382812 199.75 90.8125 204.226562 83.660156 204.226562 C 81.753906 204.226562 79.40625 203.648438 76.613281 202.503906 L 76.613281 196.324219 C 77.976562 196.523438 79.578125 196.628906 81.417969 196.628906 C 84.753906 196.628906 87.441406 195.703125 89.488281 193.851562 C 91.9375 191.597656 93.164062 189.0625 93.164062 186.257812 C 93.164062 184.335938 92.207031 180.402344 90.300781 174.449219 L 77.636719 134.90625 L 88.972656 134.90625 L 98.066406 164.480469 C 100.105469 171.195312 100.957031 175.882812 100.617188 178.554688 C 105.589844 165.203125 109.0625 150.652344 111.039062 134.90625 L 121.96875 134.90625 "/>
<path style=" stroke:none;fill-rule:nonzero;fill:rgb(94.901961%,56.862745%,6.666667%);fill-opacity:1;" d="M 172.523438 166.835938 C 172.523438 172.714844 170.375 177.542969 166.089844 181.320312 C 161.804688 185.078125 156.046875 186.964844 148.835938 186.964844 C 142.089844 186.964844 135.554688 184.792969 129.222656 180.488281 L 132.183594 174.535156 C 137.632812 177.273438 142.5625 178.640625 146.992188 178.640625 C 151.144531 178.640625 154.394531 177.710938 156.746094 175.875 C 159.089844 174.027344 160.496094 171.449219 160.496094 168.175781 C 160.496094 164.0625 157.644531 160.542969 152.402344 157.589844 C 147.566406 154.921875 137.902344 149.351562 137.902344 149.351562 C 132.664062 145.511719 130.039062 141.390625 130.039062 134.597656 C 130.039062 128.984375 131.996094 124.445312 135.910156 120.992188 C 139.828125 117.53125 144.886719 115.800781 151.078125 115.800781 C 157.480469 115.800781 163.300781 117.515625 168.542969 120.941406 L 165.878906 126.890625 C 161.394531 124.976562 156.96875 124.015625 152.609375 124.015625 C 149.070312 124.015625 146.34375 124.871094 144.441406 126.589844 C 142.53125 128.292969 141.347656 130.484375 141.347656 133.15625 C 141.347656 137.261719 144.265625 140.824219 149.652344 143.832031 C 154.550781 146.503906 164.453125 152.183594 164.453125 152.183594 C 169.835938 156.015625 172.523438 160.105469 172.523438 166.835938 "/>
<path style=" stroke:none;fill-rule:evenodd;fill:rgb(94.901961%,56.862745%,6.666667%);fill-opacity:1;" d="M 193.152344 172.183594 C 190.359375 167.664062 188.960938 160.414062 188.960938 150.414062 C 188.960938 132.957031 194.242188 124.222656 204.792969 124.222656 C 210.3125 124.222656 214.363281 126.3125 216.953125 130.484375 C 219.742188 135.007812 221.140625 142.195312 221.140625 152.054688 C 221.140625 169.652344 215.859375 178.453125 205.308594 178.453125 C 199.789062 178.453125 195.738281 176.367188 193.152344 172.183594 M 234.214844 187.722656 L 221.542969 181.441406 C 222.667969 180.511719 223.742188 179.507812 224.710938 178.34375 C 230.09375 171.984375 232.785156 162.570312 232.785156 150.105469 C 232.785156 127.171875 223.832031 115.699219 205.921875 115.699219 C 197.136719 115.699219 190.289062 118.605469 185.386719 124.429688 C 180.003906 130.800781 177.316406 140.179688 177.316406 152.570312 C 177.316406 164.757812 179.699219 173.695312 184.464844 179.375 C 188.808594 184.507812 195.378906 187.078125 204.171875 187.078125 C 207.453125 187.078125 210.460938 186.671875 213.199219 185.859375 L 229.703125 195.515625 L 234.203125 187.722656 "/>
<path style=" stroke:none;fill-rule:nonzero;fill:rgb(94.901961%,56.862745%,6.666667%);fill-opacity:1;" d="M 275.585938 186.050781 L 242.800781 186.050781 L 242.800781 116.726562 L 253.832031 116.726562 L 253.832031 177.523438 L 275.585938 177.523438 L 275.585938 186.050781 "/>
<path style=" stroke:none;fill-rule:nonzero;fill:rgb(94.901961%,56.862745%,6.666667%);fill-opacity:1;" d="M 283.453125 186.042969 L 285.28125 186.042969 L 285.28125 178.992188 L 287.675781 178.992188 L 287.675781 177.550781 L 280.96875 177.550781 L 280.96875 178.992188 L 283.453125 178.992188 Z M 297.367188 186.042969 L 299.089844 186.042969 L 299.089844 177.550781 L 296.496094 177.550781 L 294.386719 183.339844 L 292.089844 177.550781 L 289.59375 177.550781 L 289.59375 186.042969 L 291.226562 186.042969 L 291.226562 179.582031 L 291.316406 179.582031 L 293.722656 186.042969 L 294.964844 186.042969 L 297.367188 179.582031 L 297.367188 186.042969 "/>
<path style=" stroke:none;fill-rule:evenodd;fill:rgb(0%,45.882353%,56.078431%);fill-opacity:1;" d="M 289.4375 93.503906 C 282.769531 93.339844 277.605469 94.007812 273.273438 95.851562 C 272.023438 96.351562 270.027344 96.351562 269.855469 97.945312 C 270.527344 98.613281 270.605469 99.703125 271.195312 100.628906 C 272.191406 102.300781 273.9375 104.5625 275.523438 105.738281 C 277.273438 107.078125 279.023438 108.414062 280.859375 109.585938 C 284.105469 111.605469 287.769531 112.773438 290.933594 114.78125 C 292.773438 115.953125 294.597656 117.460938 296.4375 118.71875 C 297.351562 119.390625 297.929688 120.480469 299.101562 120.894531 L 299.101562 120.640625 C 298.511719 119.890625 298.347656 118.800781 297.769531 117.957031 C 296.9375 117.125 296.101562 116.367188 295.265625 115.535156 C 292.851562 112.269531 289.847656 109.421875 286.605469 107.078125 C 283.9375 105.230469 278.101562 102.714844 277.023438 99.625 C 277.023438 99.625 276.9375 99.539062 276.855469 99.457031 C 278.6875 99.285156 280.859375 98.613281 282.605469 98.105469 C 285.433594 97.355469 288.015625 97.523438 290.933594 96.773438 C 292.269531 96.433594 293.601562 96.011719 294.941406 95.601562 L 294.941406 94.84375 C 293.433594 93.339844 292.351562 91.324219 290.769531 89.902344 C 286.523438 86.21875 281.855469 82.617188 277.023438 79.597656 C 274.4375 77.921875 271.105469 76.839844 268.355469 75.410156 C 267.359375 74.910156 265.695312 74.660156 265.109375 73.816406 C 263.609375 71.976562 262.773438 69.550781 261.691406 67.367188 C 259.277344 62.765625 256.941406 57.660156 254.863281 52.792969 C 253.363281 49.527344 252.445312 46.265625 250.613281 43.246094 C 242.027344 29.003906 232.699219 20.382812 218.371094 11.921875 C 215.289062 10.160156 211.621094 9.40625 207.710938 8.484375 C 205.625 8.398438 203.542969 8.234375 201.460938 8.152344 C 200.125 7.5625 198.789062 5.96875 197.625 5.214844 C 192.875 2.203125 180.632812 -4.328125 177.132812 4.296875 C 174.882812 9.746094 180.464844 15.101562 182.382812 17.867188 C 183.796875 19.792969 185.632812 21.972656 186.628906 24.148438 C 187.210938 25.570312 187.378906 27.082031 187.964844 28.585938 C 189.296875 32.273438 190.542969 36.378906 192.296875 39.8125 C 193.210938 41.574219 194.207031 43.417969 195.375 45.003906 C 196.046875 45.929688 197.210938 46.34375 197.460938 47.855469 C 196.296875 49.527344 196.207031 52.042969 195.542969 54.136719 C 192.542969 63.601562 193.707031 75.328125 197.960938 82.28125 C 199.289062 84.375 202.457031 88.980469 206.707031 87.21875 C 210.457031 85.714844 209.625 80.9375 210.707031 76.753906 C 210.957031 75.742188 210.789062 75.078125 211.285156 74.40625 L 211.285156 74.578125 C 212.453125 76.917969 213.621094 79.175781 214.703125 81.527344 C 217.289062 85.628906 221.785156 89.902344 225.539062 92.746094 C 227.53125 94.261719 229.113281 96.851562 231.613281 97.777344 L 231.613281 97.523438 L 231.449219 97.523438 C 230.949219 96.773438 230.199219 96.433594 229.535156 95.851562 C 228.035156 94.34375 226.371094 92.5 225.199219 90.824219 C 221.703125 86.136719 218.617188 80.9375 215.875 75.578125 C 214.535156 72.976562 213.371094 70.132812 212.289062 67.535156 C 211.789062 66.535156 211.789062 65.023438 210.957031 64.523438 C 209.703125 66.363281 207.875 67.957031 206.957031 70.210938 C 205.375 73.816406 205.210938 78.253906 204.621094 82.863281 C 204.289062 82.953125 204.457031 82.863281 204.289062 83.03125 C 201.628906 82.363281 200.710938 79.597656 199.707031 77.261719 C 197.210938 71.304688 196.789062 61.757812 198.960938 54.886719 C 199.539062 53.132812 202.046875 47.605469 201.042969 45.929688 C 200.539062 44.332031 198.875 43.417969 197.960938 42.15625 C 196.878906 40.566406 195.707031 38.558594 194.964844 36.796875 C 192.960938 32.105469 191.957031 26.910156 189.796875 22.222656 C 188.796875 20.039062 187.042969 17.777344 185.632812 15.773438 C 184.046875 13.511719 182.296875 11.917969 181.046875 9.242188 C 180.632812 8.316406 180.050781 6.808594 180.714844 5.808594 C 180.878906 5.136719 181.214844 4.882812 181.882812 4.714844 C 182.960938 3.792969 186.046875 4.964844 187.128906 5.46875 C 190.210938 6.71875 192.796875 7.898438 195.375 9.65625 C 196.542969 10.496094 197.792969 12.085938 199.289062 12.507812 L 201.042969 12.507812 C 203.707031 13.089844 206.707031 12.671875 209.207031 13.429688 C 213.621094 14.851562 217.621094 16.945312 221.203125 19.207031 C 232.113281 26.160156 241.113281 36.046875 247.191406 47.855469 C 248.195312 49.777344 248.613281 51.539062 249.527344 53.546875 C 251.277344 57.65625 253.445312 61.847656 255.191406 65.863281 C 256.941406 69.800781 258.609375 73.816406 261.113281 77.089844 C 262.359375 78.84375 267.359375 79.765625 269.609375 80.6875 C 271.273438 81.441406 273.859375 82.109375 275.359375 83.03125 C 278.191406 84.785156 281.019531 86.800781 283.6875 88.730469 C 285.019531 89.734375 289.183594 91.828125 289.4375 93.503906 "/>
<path style=" stroke:none;fill-rule:evenodd;fill:rgb(0%,45.882353%,56.078431%);fill-opacity:1;" d="M 204.457031 20.707031 C 203.042969 20.707031 202.046875 20.878906 201.039062 21.128906 L 201.039062 21.296875 L 201.203125 21.296875 C 201.875 22.632812 203.042969 23.5625 203.867188 24.730469 C 204.539062 26.074219 205.125 27.40625 205.789062 28.75 C 205.871094 28.667969 205.953125 28.578125 205.953125 28.578125 C 207.125 27.746094 207.707031 26.40625 207.707031 24.394531 C 207.203125 23.804688 207.125 23.222656 206.707031 22.632812 C 206.207031 21.796875 205.125 21.378906 204.457031 20.707031 "/>
</g>
</svg>
